<?xml version="1.0" encoding="UTF-8"?>
<!DOCTYPE svg PUBLIC "-//W3C//DTD SVG 1.1//EN" "http://www.w3.org/Graphics/SVG/1.1/DTD/svg11.dtd">
<svg xmlns="http://www.w3.org/2000/svg" version="1.1" width="512px" height="512px" style="shape-rendering:geometricPrecision; text-rendering:geometricPrecision; image-rendering:optimizeQuality; fill-rule:evenodd; clip-rule:evenodd" xmlns:xlink="http://www.w3.org/1999/xlink">
<g><path style="opacity:0.961" fill="#ffffff" d="M 189.5,33.5 C 257.125,32.0561 309.292,59.3894 346,115.5C 377.996,172.591 378.496,229.924 347.5,287.5C 389.819,327.986 431.319,369.319 472,411.5C 483.921,434.568 479.754,454.068 459.5,470C 443.66,478.885 427.994,478.552 412.5,469C 370.986,428.986 330.319,388.152 290.5,346.5C 241.404,375.776 190.071,380.276 136.5,360C 75.7999,332.605 40.9666,285.772 32,219.5C 28.2109,146.565 57.3776,91.398 119.5,54C 141.593,42.4819 164.926,35.6486 189.5,33.5 Z M 199.5,61.5 C 261.311,64.3002 305.144,93.6336 331,149.5C 352.75,211.998 339.583,265.831 291.5,311C 245.414,346.568 195.414,353.235 141.5,331C 89.7543,304.217 62.421,261.551 59.5,203C 62.7298,142.155 91.7298,98.8216 146.5,73C 163.614,65.9697 181.281,62.1364 199.5,61.5 Z M 332.5,312.5 C 371.132,350.632 409.632,388.965 448,427.5C 451.714,433.941 450.88,439.774 445.5,445C 439.833,448.333 434.167,448.333 428.5,445C 391,407.5 353.5,370 316,332.5C 315.48,330.711 315.813,329.044 317,327.5C 321.677,321.927 326.843,316.927 332.5,312.5 Z"/></g>
<g><path style="opacity:0.923" fill="#ffffff" d="M 190.5,79.5 C 195.599,79.1746 200.599,79.6746 205.5,81C 208.128,84.8677 208.128,88.701 205.5,92.5C 162.247,94.4501 128.914,113.45 105.5,149.5C 97.471,152.878 93.6377,150.212 94,141.5C 110.792,112.732 135.292,93.5656 167.5,84C 175.263,82.2657 182.929,80.7657 190.5,79.5 Z"/></g>
<g><path style="opacity:0.917" fill="#ffffff" d="M 84.5,169.5 C 90.7613,168.437 94.0947,170.937 94.5,177C 93.1877,185.477 92.021,193.977 91,202.5C 86.6667,207.833 82.3333,207.833 78,202.5C 76.6467,191.802 77.98,181.468 82,171.5C 82.9947,170.934 83.828,170.267 84.5,169.5 Z"/></g>
</svg>
